<svg width="66" height="50" viewBox="0 0 66 50" fill="none" xmlns="http://www.w3.org/2000/svg">
<path d="M11.7441 17.207C11.7441 17.3861 11.679 17.5488 11.5488 17.6953C11.4186 17.8255 11.264 17.8906 11.085 17.8906C10.9385 17.8906 10.7839 17.8499 10.6211 17.7686C10.4583 17.6709 10.2712 17.5651 10.0596 17.4512C9.86426 17.3372 9.62826 17.2396 9.35156 17.1582C9.09115 17.0605 8.79004 17.0117 8.44824 17.0117C7.65072 17.0117 6.93457 17.264 6.2998 17.7686C5.68132 18.2568 5.15234 18.8672 4.71289 19.5996C4.28971 20.332 3.96419 21.1133 3.73633 21.9434C3.50846 22.7734 3.39453 23.5221 3.39453 24.1895C3.39453 24.6615 3.43522 25.1253 3.5166 25.5811C3.59798 26.0205 3.73633 26.4274 3.93164 26.8018C4.14323 27.1598 4.42806 27.4528 4.78613 27.6807C5.14421 27.8923 5.59993 27.998 6.15332 27.998C6.73926 27.998 7.30078 27.8923 7.83789 27.6807C8.375 27.4528 8.87956 27.1598 9.35156 26.8018C9.36784 26.2809 9.44922 25.7357 9.5957 25.166C9.75846 24.5801 9.96191 24.0104 10.2061 23.457C10.4502 22.8874 10.7269 22.3503 11.0361 21.8457C11.3617 21.3411 11.6953 20.8936 12.0371 20.5029L12.3545 20.6982C12.1755 21.2516 12.0452 21.8213 11.9639 22.4072C11.8825 22.9932 11.8418 23.571 11.8418 24.1406C11.8418 24.7266 11.8906 25.2799 11.9883 25.8008C12.0859 26.3216 12.2568 26.7773 12.501 27.168C12.7451 27.5423 13.0788 27.8434 13.502 28.0713C13.9251 28.2829 14.4704 28.3887 15.1377 28.3887C15.9515 28.3887 16.7002 28.2015 17.3838 27.8271C18.0674 27.4528 18.6696 26.9808 19.1904 26.4111L19.3857 26.5088C19.0928 27.0785 18.7103 27.6237 18.2383 28.1445C17.7663 28.6654 17.2373 29.1374 16.6514 29.5605C16.0817 29.9674 15.4714 30.293 14.8203 30.5371C14.1693 30.7812 13.5264 30.9033 12.8916 30.9033C11.9964 30.9033 11.264 30.6429 10.6943 30.1221C10.1247 29.6175 9.73405 28.9746 9.52246 28.1934C8.83887 28.877 8.07389 29.4548 7.22754 29.9268C6.39746 30.3825 5.51855 30.6104 4.59082 30.6104C3.90723 30.6104 3.29688 30.4801 2.75977 30.2197C2.23893 29.9756 1.79948 29.6419 1.44141 29.2188C1.08333 28.7956 0.806641 28.2992 0.611328 27.7295C0.432292 27.1436 0.342773 26.5332 0.342773 25.8984C0.342773 25.166 0.456706 24.4173 0.68457 23.6523C0.928711 22.8711 1.25423 22.1061 1.66113 21.3574C2.08431 20.6087 2.58073 19.9007 3.15039 19.2334C3.72005 18.5661 4.33854 17.9801 5.00586 17.4756C5.68945 16.971 6.4056 16.5723 7.1543 16.2793C7.90299 15.9863 8.66797 15.8398 9.44922 15.8398C9.62826 15.8398 9.84798 15.8643 10.1084 15.9131C10.3688 15.9456 10.6211 16.0107 10.8652 16.1084C11.1094 16.2061 11.3128 16.3444 11.4756 16.5234C11.6546 16.7025 11.7441 16.9303 11.7441 17.207ZM36.9883 26.5088C36.6953 27.1598 36.321 27.7458 35.8652 28.2666C35.4258 28.7874 34.9456 29.235 34.4248 29.6094C33.904 29.9674 33.3669 30.2441 32.8135 30.4395C32.2601 30.651 31.7311 30.7568 31.2266 30.7568C30.2826 30.7568 29.485 30.5941 28.834 30.2686C28.1829 29.943 27.654 29.5036 27.2471 28.9502C26.8402 28.3968 26.5472 27.7458 26.3682 26.9971C26.1891 26.2484 26.0996 25.4508 26.0996 24.6045C26.0996 23.9535 26.1484 23.278 26.2461 22.5781C26.3438 21.8783 26.4821 21.2028 26.6611 20.5518C26.6937 20.4541 26.7262 20.3402 26.7588 20.21C26.7913 20.0635 26.8076 19.9414 26.8076 19.8438C26.8076 19.7624 26.7588 19.6973 26.6611 19.6484C26.3844 19.5508 26.0915 19.4613 25.7822 19.3799C25.473 19.2822 25.1637 19.1764 24.8545 19.0625C24.5615 18.9486 24.2767 18.8184 24 18.6719C23.7396 18.5254 23.5117 18.3382 23.3164 18.1104C23.3001 19.0869 23.1374 20.0798 22.8281 21.0889C22.5189 22.0817 22.1038 23.042 21.583 23.9697C21.0785 24.8812 20.4844 25.7357 19.8008 26.5332C19.1172 27.3307 18.3929 28.0225 17.6279 28.6084L17.3838 28.3643C17.8558 27.8434 18.2871 27.2249 18.6777 26.5088C19.0684 25.7926 19.402 25.0439 19.6787 24.2627C19.9554 23.4814 20.167 22.6921 20.3135 21.8945C20.4762 21.097 20.5576 20.3483 20.5576 19.6484C20.5576 19.2904 20.5251 18.9567 20.46 18.6475C20.3949 18.3219 20.3216 18.0127 20.2402 17.7197C20.1751 17.4268 20.11 17.1501 20.0449 16.8896C19.9798 16.613 19.9473 16.3363 19.9473 16.0596C19.9473 15.6038 20.0938 15.2458 20.3867 14.9854C20.6797 14.7249 21.054 14.5947 21.5098 14.5947C21.7539 14.5947 21.9411 14.668 22.0713 14.8145C22.2015 14.9447 22.3154 15.1074 22.4131 15.3027C22.5107 15.498 22.6247 15.7015 22.7549 15.9131C22.8851 16.1247 23.0723 16.3037 23.3164 16.4502C23.6257 16.6292 24.0163 16.7594 24.4883 16.8408C24.9603 16.9222 25.4567 16.9954 25.9775 17.0605C26.4984 17.1257 27.0192 17.1908 27.54 17.2559C28.0609 17.321 28.5247 17.4349 28.9316 17.5977C29.3548 17.7441 29.6966 17.9557 29.957 18.2324C30.2174 18.4928 30.3477 18.8509 30.3477 19.3066C30.3477 19.5345 30.3232 19.7624 30.2744 19.9902C30.2419 20.2018 30.1849 20.4053 30.1035 20.6006C29.9082 21.2842 29.7373 21.984 29.5908 22.7002C29.4606 23.4001 29.3955 24.0999 29.3955 24.7998C29.3955 25.402 29.4362 25.9554 29.5176 26.46C29.6152 26.9482 29.7861 27.3714 30.0303 27.7295C30.2744 28.0876 30.5999 28.3643 31.0068 28.5596C31.4137 28.7549 31.9346 28.8525 32.5693 28.8525C33.4808 28.8525 34.2783 28.6328 34.9619 28.1934C35.6455 27.7376 36.2477 27.1436 36.7686 26.4111L36.9883 26.5088ZM51.6855 26.5088C51.3275 27.111 50.9043 27.6725 50.416 28.1934C49.944 28.7142 49.415 29.1699 48.8291 29.5605C48.2594 29.9512 47.641 30.2523 46.9736 30.4639C46.3063 30.6917 45.6146 30.8057 44.8984 30.8057C43.8405 30.8057 42.9046 30.6266 42.0908 30.2686C41.2933 29.9105 40.6016 29.4303 40.0156 28.8281C39.4297 28.2096 38.9414 27.4935 38.5508 26.6797C38.1602 25.8659 37.8509 25.0195 37.623 24.1406C37.3952 23.2454 37.2324 22.334 37.1348 21.4062C37.0371 20.4785 36.9883 19.5915 36.9883 18.7451C36.9883 17.9639 37.0208 17.1663 37.0859 16.3525C37.151 15.5225 37.2487 14.6761 37.3789 13.8135C36.8743 13.8298 36.3779 13.8379 35.8896 13.8379C35.4176 13.8379 34.9456 13.8379 34.4736 13.8379C34.1644 13.8379 33.8145 13.8298 33.4238 13.8135C33.0332 13.7972 32.667 13.7321 32.3252 13.6182C31.9834 13.5042 31.6986 13.3333 31.4707 13.1055C31.2428 12.8776 31.1289 12.5439 31.1289 12.1045C31.1289 11.8604 31.1777 11.665 31.2754 11.5186C31.3568 11.3721 31.4788 11.2663 31.6416 11.2012C31.7881 11.1198 31.9671 11.071 32.1787 11.0547C32.374 11.0221 32.5775 11.0059 32.7891 11.0059C33.0332 11.0059 33.611 11.0465 34.5225 11.1279C35.4339 11.2093 36.5326 11.2988 37.8184 11.3965C38.2253 9.47591 38.7461 7.58789 39.3809 5.73242C40.0319 3.87695 40.7643 2.18424 41.5781 0.654297H41.9199C41.3991 2.42839 40.9352 4.21875 40.5283 6.02539C40.1377 7.83203 39.8447 9.66309 39.6494 11.5186C40.8376 11.5999 42.0583 11.6732 43.3115 11.7383C44.5811 11.7871 45.818 11.8115 47.0225 11.8115C48.7965 11.8115 50.237 11.7952 51.3438 11.7627C52.4505 11.7301 53.3213 11.6895 53.9561 11.6406C54.7048 11.5755 55.2663 11.5104 55.6406 11.4453L55.7383 11.8604C54.7617 12.0882 53.6468 12.3079 52.3936 12.5195C51.1403 12.7148 49.8057 12.8939 48.3896 13.0566C46.9736 13.2031 45.5088 13.3333 43.9951 13.4473C42.4814 13.5612 40.9759 13.6507 39.4785 13.7158C39.446 14.0413 39.4297 14.375 39.4297 14.7168C39.4297 15.0423 39.4297 15.3678 39.4297 15.6934C39.4297 16.4746 39.4622 17.3372 39.5273 18.2812C39.6087 19.2253 39.7471 20.1774 39.9424 21.1377C40.1377 22.0817 40.3981 23.0094 40.7236 23.9209C41.0654 24.8161 41.5049 25.6136 42.042 26.3135C42.5954 26.9971 43.2546 27.5505 44.0195 27.9736C44.7845 28.3968 45.6878 28.6084 46.7295 28.6084C47.6898 28.6084 48.5524 28.3968 49.3174 27.9736C50.0986 27.5505 50.8392 27.0296 51.5391 26.4111L51.6855 26.5088ZM65.7236 37.3975C65.7236 38.3252 65.6341 39.2529 65.4551 40.1807C65.276 41.1084 65.0075 42.0036 64.6494 42.8662C64.3076 43.7451 63.8763 44.5589 63.3555 45.3076C62.8346 46.0726 62.2406 46.7318 61.5732 47.2852C60.9059 47.8385 60.1572 48.278 59.3271 48.6035C58.5133 48.929 57.6263 49.0918 56.666 49.0918C55.7708 49.0918 54.9245 48.9128 54.127 48.5547C53.3294 48.1966 52.6296 47.7165 52.0273 47.1143C51.4414 46.512 50.9775 45.804 50.6357 44.9902C50.2939 44.1927 50.123 43.3464 50.123 42.4512C50.123 41.4746 50.3184 40.5387 50.709 39.6436C51.1159 38.7484 51.6449 37.9264 52.2959 37.1777C52.9469 36.429 53.6794 35.7699 54.4932 35.2002C55.3232 34.6305 56.1696 34.1829 57.0322 33.8574L57.1787 34.1504C55.5999 35.013 54.3792 36.1768 53.5166 37.6416C52.654 39.1064 52.2227 40.7422 52.2227 42.5488C52.2227 43.2812 52.3203 43.9811 52.5156 44.6484C52.7272 45.332 53.0365 45.9342 53.4434 46.4551C53.8503 46.9759 54.3548 47.391 54.957 47.7002C55.5755 48.0257 56.2835 48.1885 57.0811 48.1885C58.1878 48.1885 59.1074 47.8874 59.8398 47.2852C60.5723 46.6829 61.1582 45.9261 61.5977 45.0146C62.0371 44.1195 62.3464 43.1429 62.5254 42.085C62.7207 41.027 62.8184 40.0342 62.8184 39.1064C62.8184 38.1136 62.737 37.137 62.5742 36.1768C62.4277 35.2165 62.2406 34.2562 62.0127 33.2959C61.8011 32.3356 61.5814 31.3753 61.3535 30.415C61.1257 29.4548 60.9385 28.4863 60.792 27.5098C60.4502 27.9167 60.084 28.3073 59.6934 28.6816C59.3027 29.0397 58.8796 29.3571 58.4238 29.6338C57.9844 29.8942 57.5124 30.0977 57.0078 30.2441C56.5033 30.4069 55.9743 30.4883 55.4209 30.4883C54.5908 30.4883 53.8584 30.3337 53.2236 30.0244C52.6051 29.7314 52.0843 29.3245 51.6611 28.8037C51.238 28.2829 50.9124 27.6807 50.6846 26.9971C50.473 26.3135 50.3672 25.5811 50.3672 24.7998C50.3672 23.9209 50.4893 23.0583 50.7334 22.2119C50.9775 21.3656 51.3193 20.568 51.7588 19.8193C52.1982 19.0706 52.7191 18.3708 53.3213 17.7197C53.9235 17.0687 54.5745 16.499 55.2744 16.0107L55.5674 16.1572C54.8675 17.1663 54.3141 18.2568 53.9072 19.4287C53.5166 20.5843 53.3213 21.7725 53.3213 22.9932C53.3213 23.514 53.3783 24.0755 53.4922 24.6777C53.6061 25.2799 53.7852 25.8333 54.0293 26.3379C54.2897 26.8424 54.6315 27.2656 55.0547 27.6074C55.4941 27.9329 56.0312 28.0957 56.666 28.0957C57.431 28.0957 58.1471 27.9329 58.8145 27.6074C59.4818 27.2656 60.0921 26.8343 60.6455 26.3135C60.5967 25.7113 60.5723 25.109 60.5723 24.5068C60.5723 23.6768 60.6292 22.8141 60.7432 21.9189C60.8571 21.0238 61.0605 20.1693 61.3535 19.3555C61.6628 18.5254 62.0778 17.7767 62.5986 17.1094C63.1195 16.4258 63.7949 15.8724 64.625 15.4492L64.8203 15.5469C64.4297 15.9538 64.1042 16.4095 63.8438 16.9141C63.5833 17.4023 63.3717 17.915 63.209 18.4521C63.0625 18.9893 62.9567 19.5426 62.8916 20.1123C62.8428 20.6657 62.8184 21.2109 62.8184 21.748C62.8184 23.2454 62.9648 24.637 63.2578 25.9229C63.5671 27.2087 63.9007 28.4701 64.2588 29.707C64.6331 30.944 64.9668 32.181 65.2598 33.418C65.569 34.6712 65.7236 35.9977 65.7236 37.3975Z" fill="black"/>
</svg>
