<svg width="56" height="86" viewBox="0 0 56 86" fill="none" xmlns="http://www.w3.org/2000/svg">
<path d="M23.5605 83.8203C23.5605 84.7318 23.056 85.1875 22.0469 85.1875C21.3958 85.1875 20.7773 85.0573 20.1914 84.7969C19.6055 84.569 19.0684 84.3086 18.5801 84.0156C17.571 83.4622 16.6758 82.6484 15.8945 81.5742C15.1458 80.5 14.4948 79.263 13.9414 77.8633C13.4206 76.4635 12.9648 74.9336 12.5742 73.2734C12.2161 71.6458 11.9232 69.9857 11.6953 68.293C11.4674 66.6003 11.2884 64.9238 11.1582 63.2637C11.028 61.6035 10.9466 60.0573 10.9141 58.625C9.97005 58.2669 9.00977 57.86 8.0332 57.4043C7.08919 56.9486 6.22656 56.444 5.44531 55.8906C4.69661 55.3047 4.07812 54.6862 3.58984 54.0352C3.10156 53.3516 2.85742 52.6354 2.85742 51.8867C2.85742 51.3008 2.98763 50.7799 3.24805 50.3242C3.54102 49.8359 4.01302 49.5918 4.66406 49.5918C5.21745 49.5918 5.73828 49.722 6.22656 49.9824C6.71484 50.2103 7.20312 50.5195 7.69141 50.9102C8.17969 51.3008 8.68424 51.7565 9.20508 52.2773C9.72591 52.7656 10.2793 53.2702 10.8652 53.791C10.8652 50.4707 10.9792 46.9551 11.207 43.2441C11.4349 39.5007 11.8418 35.7734 12.4277 32.0625C13.0137 28.319 13.7949 24.6732 14.7715 21.125C15.7806 17.5768 17.0501 14.3053 18.5801 11.3105L19.459 11.6035C18.3522 17.235 17.5384 22.8828 17.0176 28.5469C16.5293 34.1784 16.2852 39.8262 16.2852 45.4902C16.2852 47.5736 16.334 49.6406 16.4316 51.6914C16.5618 53.7096 16.7409 55.7279 16.9688 57.7461C17.9453 58.1367 19.0358 58.446 20.2402 58.6738C21.4447 58.9017 22.7793 59.0156 24.2441 59.0156C26.7181 59.0156 29.013 58.6413 31.1289 57.8926C33.2773 57.1439 35.2305 56.1185 36.9883 54.8164C38.7786 53.4818 40.3574 51.9193 41.7246 50.1289C43.0918 48.3385 44.2474 46.418 45.1914 44.3672C46.1354 42.2839 46.8516 40.1354 47.3398 37.9219C47.8281 35.6758 48.0723 33.4297 48.0723 31.1836C48.0723 28.9701 47.8281 26.724 47.3398 24.4453C46.8516 22.1341 46.1191 19.9043 45.1426 17.7559C44.1986 15.5749 43.0267 13.5404 41.627 11.6523C40.2598 9.76432 38.681 8.12044 36.8906 6.7207C35.1003 5.28841 33.1146 4.16536 30.9336 3.35156C28.7852 2.50521 26.4577 2.08203 23.9512 2.08203C21.9004 2.08203 19.7845 2.45638 17.6035 3.20508C15.4225 3.95378 13.4368 5.01172 11.6465 6.37891C9.88867 7.71354 8.42383 9.32487 7.25195 11.2129C6.11263 13.1009 5.54297 15.168 5.54297 17.4141C5.54297 18.293 5.64062 19.0905 5.83594 19.8066C6.0638 20.4902 6.29167 21.125 6.51953 21.7109C6.77995 22.2969 7.00781 22.8503 7.20312 23.3711C7.43099 23.8594 7.54492 24.3639 7.54492 24.8848C7.54492 25.8288 7.2194 26.6263 6.56836 27.2773C5.94987 27.8958 5.1849 28.2051 4.27344 28.2051C3.42708 28.2051 2.75977 27.9772 2.27148 27.5215C1.7832 27.0658 1.39258 26.4961 1.09961 25.8125C0.839193 25.1289 0.660156 24.4128 0.5625 23.6641C0.497396 22.8828 0.464844 22.1992 0.464844 21.6133C0.464844 18.7487 1.13216 16.1608 2.4668 13.8496C3.83398 11.5059 5.60807 9.42253 7.78906 7.59961C9.15625 6.42773 10.5234 5.40234 11.8906 4.52344C13.2904 3.61198 14.7227 2.86328 16.1875 2.27734C17.6523 1.65885 19.1823 1.20312 20.7773 0.910156C22.4049 0.584635 24.1302 0.421875 25.9531 0.421875C30.1849 0.421875 34.0911 1.1543 37.6719 2.61914C41.2526 4.05143 44.3288 6.06966 46.9004 8.67383C49.5046 11.2454 51.5228 14.3216 52.9551 17.9023C54.4199 21.4505 55.1523 25.3568 55.1523 29.6211C55.1523 34.0156 54.3711 38.1335 52.8086 41.9746C51.2786 45.7832 49.1302 49.1198 46.3633 51.9844C43.6289 54.8164 40.3737 57.0462 36.5977 58.6738C32.8216 60.3014 28.7038 61.1152 24.2441 61.1152C23.1048 61.1152 21.9492 61.0501 20.7773 60.9199C19.6055 60.7897 18.4499 60.627 17.3105 60.4316C18.3848 67.7884 20.3379 75.0475 23.1699 82.209C23.2676 82.4694 23.349 82.7298 23.4141 82.9902C23.5117 83.2832 23.5605 83.5599 23.5605 83.8203Z" fill="#FF2E2E"/>
</svg>
